<svg id="Layer_1" enable-background="new 0 0 512 512" height="512" viewBox="0 0 512 512" width="512" xmlns="http://www.w3.org/2000/svg"><g><path d="m256 21.996c-17.517 0-34.599 1.853-51.075 5.347l-120.708 64.987c-45.187 44.446-73.219 106.279-73.219 174.668 0 76.805 35.352 145.344 90.659 190.265l180.245 53.375c123.133-12.94 219.099-117.079 219.099-243.64.001-135.311-109.69-245.002-245.001-245.002z" fill="#1d2e79"/><path d="m415.921 242.983c-5.902-7.131-7.966-16.685-5.543-25.619 1.16-5.556 5.93-16.189 4.31-32.439-9.218-92.479-94.544-158.399-189.907-158.399-7.566 0-15.022.468-22.348 1.36-.752.168-1.499.348-2.248.523v73.937c-4.053 2.739-22.934 17.134-12.447 41.137 10.195 23.334 17.387 56.634 18.503 61.966-2.802 3.293-14.665 19.223 1.635 36.012v80.23c-.866 1.995-5.222 12.866-4.038 27.129 2.147 25.868 20.847 41.935 36.156 50.858 31.421 18.314 49.799 31.683 59.428 39.397 2.097-1.717 4.991-2.296 7.673-1.361 17.019 5.163 28.808 12.518 48.621 11.634 10.189-.454 19.5-5.916 25.245-14.342 11.679-17.129 8.427-33.183 8.98-38.47 0-15.229 12.003-21.644 16.112-26.634 3.049-2.948 4.289-7.301 3.252-11.413l-.951-3.772c-.323-1.282.123-2.636 1.146-3.474l11.368-9.321c1.006-.825 1.589-2.058 1.589-3.36v-16.319c0-1.168.738-2.205 1.842-2.588 6.927-2.402 31.023-11.464 31.023-21.29 0-6.362-20.829-32.945-39.401-55.382z" fill="#e8f8fc"/><path d="m201.685 103.161v-75.101c-45.161 10.223-85.586 32.911-117.468 64.27-26.517 31.757-42.48 72.632-42.48 117.239 0 53.248 22.742 101.179 59.039 134.625 13.842 12.755 19.751 31.96 14.994 50.173l-14.113 62.896c42.131 34.218 95.837 54.737 154.343 54.737 8.75 0 17.39-.468 25.903-1.362.13-16.834.208-36.754.226-37.294.331-10.132 4.758-12.299 15.469-32.138.772-1.316 1.877-2.333 3.152-3.006-9.546-7.692-27.987-21.158-60.001-39.818-52.613-30.667-31.374-76.372-31.374-76.372v-81.165c-18.095-18.095-1.514-34.963-1.514-34.963s-7.5-37.25-18.75-63 12.574-39.721 12.574-39.721z" fill="#ade9f7"/><g><path d="m341.692 182.003h-47.477c-5.522 0-10-4.477-10-10s4.478-10 10-10h47.477c5.522 0 10 4.477 10 10s-4.478 10-10 10z" fill="#1d8df2"/></g><g><circle cx="351.247" cy="172.003" fill="#3feadd" r="22.441"/></g><path d="m331.683 89.661-9.268 10.091h-27.858c-5.326 0-9.977 4.019-10.321 9.335-.377 5.824 4.236 10.665 9.978 10.665h32.594c2.8 0 5.471-1.174 7.365-3.236l12.87-14.013c-6.903-1.64-12.57-6.466-15.36-12.842z" fill="#1d8df2"/><g><circle cx="351.247" cy="81.675" fill="#fef156" r="22.441"/></g><path d="m331.683 254.345-9.268-10.091h-27.858c-5.326 0-9.977-4.019-10.321-9.335-.377-5.824 4.236-10.665 9.978-10.665h32.594c2.8 0 5.471 1.174 7.365 3.236l12.87 14.013c-6.903 1.64-12.57 6.466-15.36 12.842z" fill="#1d8df2"/><g><circle cx="351.247" cy="262.331" fill="#ae79fd" r="22.441"/></g><g><path d="m61.678 182.003h47.477c5.522 0 10-4.477 10-10s-4.478-10-10-10h-47.477c-5.522 0-10 4.477-10 10s4.477 10 10 10z" fill="#1d8df2"/></g><g><circle cx="52.122" cy="172.003" fill="#3feadd" r="22.441"/></g><path d="m71.686 89.661 9.268 10.091h27.858c5.326 0 9.977 4.019 10.321 9.335.377 5.824-4.236 10.665-9.978 10.665h-32.594c-2.8 0-5.471-1.174-7.365-3.236l-12.87-14.013c6.903-1.64 12.57-6.466 15.36-12.842z" fill="#1d8df2"/><g><circle cx="52.122" cy="81.675" fill="#ae79fd" r="22.441"/></g><path d="m71.686 254.345 9.268-10.091h27.858c5.326 0 9.977-4.019 10.321-9.335.377-5.824-4.236-10.665-9.978-10.665h-32.594c-2.8 0-5.471 1.174-7.365 3.236l-12.87 14.013c6.903 1.64 12.57 6.466 15.36 12.842z" fill="#1d8df2"/><g><circle cx="52.122" cy="262.331" fill="#fef156" r="22.441"/></g><g><path d="m191.685 312.01v-47.477c0-5.522 4.477-10 10-10s10 4.478 10 10v47.477c0 5.522-4.477 10-10 10s-10-4.477-10-10z" fill="#1d8df2"/></g><g><circle cx="201.685" cy="321.565" fill="#3feadd" r="22.441"/></g><path d="m284.027 302.001-10.091-9.268v-27.858c0-5.326-4.019-9.977-9.335-10.321-5.824-.377-10.665 4.236-10.665 9.979v32.594c0 2.8 1.174 5.471 3.236 7.365l14.013 12.87c1.64-6.904 6.465-12.57 12.842-15.361z" fill="#1d8df2"/><g><circle cx="292.013" cy="321.565" fill="#fef156" r="22.441"/></g><path d="m119.343 302.001 10.091-9.268v-27.858c0-5.326 4.019-9.977 9.335-10.321 5.824-.377 10.665 4.236 10.665 9.979v32.594c0 2.8-1.174 5.471-3.236 7.365l-14.013 12.87c-1.64-6.904-6.466-12.57-12.842-15.361z" fill="#1d8df2"/><g><circle cx="111.357" cy="321.565" fill="#ae79fd" r="22.441"/></g><g><path d="m191.685 31.996v47.477c0 5.522 4.477 10 10 10s10-4.478 10-10v-47.477c0-5.522-4.477-10-10-10s-10 4.478-10 10z" fill="#1d8df2"/></g><g><circle cx="201.685" cy="22.441" fill="#3feadd" r="22.441"/></g><path d="m284.027 42.005-10.091 9.268v27.857c0 5.326-4.019 9.977-9.335 10.321-5.824.377-10.665-4.236-10.665-9.979v-32.593c0-2.8 1.174-5.471 3.236-7.365l14.013-12.87c1.64 6.904 6.465 12.571 12.842 15.361z" fill="#1d8df2"/><g><circle cx="292.013" cy="22.441" fill="#ae79fd" r="22.441"/></g><path d="m119.343 42.005 10.091 9.268v27.857c0 5.326 4.019 9.977 9.335 10.321 5.824.377 10.665-4.236 10.665-9.979v-32.593c0-2.8-1.174-5.471-3.236-7.365l-14.013-12.87c-1.64 6.904-6.466 12.571-12.842 15.361z" fill="#1d8df2"/><g><circle cx="111.357" cy="22.441" fill="#fef156" r="22.441"/></g><path d="m248.159 240.845c12.457 0 22.556-10.098 22.556-22.556v-92.571c0-12.458-10.099-22.557-22.557-22.557h-92.948c-12.457 0-22.556 10.099-22.556 22.556v92.572c0 12.457 10.098 22.556 22.556 22.556z" fill="#ae79fd"/><path d="m155.21 240.845h54.166c-18.095-18.095-1.514-34.963-1.514-34.963s-7.5-37.25-18.75-63 12.572-39.721 12.572-39.721h-46.474c-12.457 0-22.556 10.099-22.556 22.556v92.572c0 12.457 10.099 22.556 22.556 22.556z" fill="#9c58fe"/><g><g><path d="m208.981 209.332c-3.031 0-5.885-1.851-7.019-4.854l-17.242-45.689-17.409 45.71c-1.475 3.871-5.809 5.814-9.678 4.34-3.871-1.475-5.814-5.808-4.339-9.678l23.151-60.785c.021-.057.044-.113.066-.169 1.372-3.355 4.601-5.526 8.225-5.531h.011c3.621 0 6.849 2.162 8.228 5.511.028.069.055.138.081.207l22.941 60.788c1.462 3.876-.494 8.203-4.369 9.665-.872.329-1.768.485-2.647.485z" fill="#2fd0e2"/></g><g><path d="m201.876 194.191h-34.354c-4.142 0-7.5-3.358-7.5-7.5 0-4.143 3.358-7.5 7.5-7.5h34.354c4.142 0 7.5 3.357 7.5 7.5s-3.358 7.5-7.5 7.5z" fill="#2fd0e2"/></g></g><g><g><path d="m233.25 209.33c-4.142 0-7.5-3.357-7.5-7.5v-61.654c0-4.143 3.358-7.5 7.5-7.5s7.5 3.357 7.5 7.5v61.654c0 4.143-3.358 7.5-7.5 7.5z" fill="#3feadd"/></g></g></g></svg>