<svg width="28" height="16" viewBox="0 0 28 16" fill="none" xmlns="http://www.w3.org/2000/svg">
<path d="M1 6.98242C0.447715 6.98242 0 7.43014 0 7.98242C0 8.53471 0.447715 8.98242 1 8.98242V6.98242ZM27.7071 8.68953C28.0976 8.299 28.0976 7.66584 27.7071 7.27532L21.3431 0.911354C20.9526 0.52083 20.3195 0.52083 19.9289 0.911354C19.5384 1.30188 19.5384 1.93504 19.9289 2.32557L25.5858 7.98242L19.9289 13.6393C19.5384 14.0298 19.5384 14.663 19.9289 15.0535C20.3195 15.444 20.9526 15.444 21.3431 15.0535L27.7071 8.68953ZM1 8.98242H27V6.98242H1V8.98242Z" fill="white"/>
</svg>
